<svg width="100" height="100" viewBox="0 0 100 100" xmlns="http://www.w3.org/2000/svg">
  <defs>
    <linearGradient id="bg" x1="8" y1="6" x2="94" y2="96" gradientUnits="userSpaceOnUse">
      <stop offset="0" stop-color="#25406E"/>
      <stop offset="0.55" stop-color="#122240"/>
      <stop offset="1" stop-color="#060B16"/>
    </linearGradient>
    <linearGradient id="mgrad" x1="27" y1="35" x2="73" y2="79" gradientUnits="userSpaceOnUse">
      <stop offset="0" stop-color="#FFFFFF"/>
      <stop offset="0.5" stop-color="#FBFCFE"/>
      <stop offset="1" stop-color="#DEE6F2"/>
    </linearGradient>
    <linearGradient id="diamond" x1="38" y1="14" x2="62" y2="40" gradientUnits="userSpaceOnUse">
      <stop offset="0" stop-color="#FED7AA"/>
      <stop offset="0.45" stop-color="#FB923C"/>
      <stop offset="1" stop-color="#DC5A0E"/>
    </linearGradient>
    <radialGradient id="sheen" cx="0.3" cy="0.14" r="0.85">
      <stop offset="0" stop-color="#FFFFFF" stop-opacity="0.20"/>
      <stop offset="1" stop-color="#FFFFFF" stop-opacity="0"/>
    </radialGradient>
    <filter id="markShadow" x="-40%" y="-40%" width="180%" height="180%">
      <feDropShadow dx="0" dy="1.3" stdDeviation="1.3" flood-color="#000000" flood-opacity="0.32"/>
    </filter>
    <filter id="gemShadow" x="-80%" y="-80%" width="260%" height="260%">
      <feDropShadow dx="0" dy="0.8" stdDeviation="1" flood-color="#7C2D12" flood-opacity="0.5"/>
    </filter>
  </defs>

  <rect x="3" y="3" width="94" height="94" rx="21" fill="url(#bg)"/>
  <rect x="3" y="3" width="94" height="94" rx="21" fill="url(#sheen)"/>

  <path
    d="M27,79 L37,35 L50,54 L63,35 L73,79"
    fill="none"
    stroke="url(#mgrad)"
    stroke-width="10"
    stroke-linejoin="miter"
    stroke-linecap="round"
    filter="url(#markShadow)"
  />

  <path
    d="M38,22 Q50,14 62,22 L60,30 Q59,33 55,35.5 L50,40 L45,35.5 Q41,33 40,30 Z"
    fill="url(#diamond)"
    filter="url(#gemShadow)"
  />

  <rect x="3.5" y="3.5" width="93" height="93" rx="20.5" fill="none" stroke="#FFFFFF" stroke-opacity="0.09"/>
</svg>
